<mxfile host="app.diagrams.net" modified="2021-10-11T15:14:35.790Z" agent="5.0 (Macintosh; Intel Mac OS X 10_15_7) AppleWebKit/537.36 (KHTML, like Gecko) Chrome/92.0.4515.131 Safari/537.36" etag="wxSt_DprWvW7LHQ7QbCN" version="15.5.0" type="github">
  <diagram id="blv5_ZdXRcWsS6tgFCRy" name="Page-1">
    <mxGraphModel dx="450" dy="-877" grid="0" gridSize="10" guides="1" tooltips="1" connect="1" arrows="1" fold="1" page="1" pageScale="1" pageWidth="827" pageHeight="1169" math="1" shadow="0">
      <root>
        <mxCell id="0" />
        <mxCell id="1" parent="0" />
        <mxCell id="NrOy4aeaFnWakyzEMCqW-32" value="" style="ellipse;whiteSpace=wrap;html=1;aspect=fixed;strokeColor=#000000;strokeWidth=1;fillColor=#FFFFFF;fontSize=11;dashed=1;opacity=40;" parent="1" vertex="1">
          <mxGeometry x="277.25" y="2076.25" width="50.25" height="50.25" as="geometry" />
        </mxCell>
        <mxCell id="NrOy4aeaFnWakyzEMCqW-33" value="" style="ellipse;whiteSpace=wrap;html=1;aspect=fixed;strokeColor=#000000;strokeWidth=1;fillColor=#FFFFFF;fontSize=11;dashed=1;opacity=40;" parent="1" vertex="1">
          <mxGeometry x="257.25" y="2061" width="50.25" height="50.25" as="geometry" />
        </mxCell>
        <mxCell id="NrOy4aeaFnWakyzEMCqW-34" value="" style="endArrow=classic;html=1;fontSize=11;fillColor=#d5e8d4;strokeColor=#82b366;entryX=0;entryY=0;entryDx=0;entryDy=0;" parent="1" target="NrOy4aeaFnWakyzEMCqW-32" edge="1">
          <mxGeometry width="50" height="50" relative="1" as="geometry">
            <mxPoint x="223" y="2145.2500000000005" as="sourcePoint" />
            <mxPoint x="277.25" y="2104.25" as="targetPoint" />
          </mxGeometry>
        </mxCell>
        <mxCell id="NrOy4aeaFnWakyzEMCqW-35" value="" style="endArrow=classic;html=1;fontSize=11;fillColor=#f8cecc;strokeColor=#B85450;" parent="1" edge="1">
          <mxGeometry width="50" height="50" relative="1" as="geometry">
            <mxPoint x="223" y="2145.2500000000005" as="sourcePoint" />
            <mxPoint x="306.25" y="2101.25" as="targetPoint" />
          </mxGeometry>
        </mxCell>
        <mxCell id="NrOy4aeaFnWakyzEMCqW-36" value="" style="endArrow=classic;html=1;strokeColor=#6c8ebf;fontSize=11;exitX=0;exitY=0;exitDx=0;exitDy=0;fillColor=#dae8fc;" parent="1" source="NrOy4aeaFnWakyzEMCqW-32" edge="1">
          <mxGeometry width="50" height="50" relative="1" as="geometry">
            <mxPoint x="343.25" y="2126.25" as="sourcePoint" />
            <mxPoint x="302.25000000000006" y="2101.25" as="targetPoint" />
          </mxGeometry>
        </mxCell>
        <mxCell id="NrOy4aeaFnWakyzEMCqW-37" value="$$\tilde{r}$$" style="text;html=1;strokeColor=none;fillColor=none;align=center;verticalAlign=middle;whiteSpace=wrap;rounded=0;dashed=1;fontSize=11;opacity=40;" parent="1" vertex="1">
          <mxGeometry x="290" y="2082.12" width="14.5" height="8" as="geometry" />
        </mxCell>
        <mxCell id="NrOy4aeaFnWakyzEMCqW-38" value="$$r_x$$" style="text;html=1;strokeColor=none;fillColor=none;align=center;verticalAlign=middle;whiteSpace=wrap;rounded=0;dashed=1;fontSize=11;opacity=40;" parent="1" vertex="1">
          <mxGeometry x="257.25" y="2106" width="18" height="12" as="geometry" />
        </mxCell>
        <mxCell id="NrOy4aeaFnWakyzEMCqW-39" value="$$r_y$$" style="text;html=1;strokeColor=none;fillColor=none;align=center;verticalAlign=middle;whiteSpace=wrap;rounded=0;dashed=1;fontSize=11;opacity=40;" parent="1" vertex="1">
          <mxGeometry x="277.25" y="2114" width="16" height="12.5" as="geometry" />
        </mxCell>
        <mxCell id="NrOy4aeaFnWakyzEMCqW-40" value="" style="endArrow=classic;html=1;fontSize=11;exitX=0;exitY=0;exitDx=0;exitDy=0;fillColor=#dae8fc;strokeColor=#000000;dashed=1;endSize=3;" parent="1" edge="1">
          <mxGeometry width="50" height="50" relative="1" as="geometry">
            <mxPoint x="284.60894212269113" y="2084.25" as="sourcePoint" />
            <mxPoint x="284.25" y="2065.2500000000005" as="targetPoint" />
          </mxGeometry>
        </mxCell>
        <mxCell id="NrOy4aeaFnWakyzEMCqW-41" value="" style="endArrow=classic;html=1;fontSize=11;fillColor=#d5e8d4;entryX=0;entryY=0;entryDx=0;entryDy=0;dashed=1;strokeColor=#FF3333;endSize=3;" parent="1" edge="1">
          <mxGeometry width="50" height="50" relative="1" as="geometry">
            <mxPoint x="223.25" y="2144.25" as="sourcePoint" />
            <mxPoint x="284.7489421226902" y="2064.4689421226904" as="targetPoint" />
          </mxGeometry>
        </mxCell>
        <mxCell id="NrOy4aeaFnWakyzEMCqW-42" value="$$\hat{r}_x$$" style="text;html=1;strokeColor=none;fillColor=none;align=center;verticalAlign=middle;whiteSpace=wrap;rounded=0;dashed=1;fontSize=11;opacity=40;" parent="1" vertex="1">
          <mxGeometry x="249.25" y="2076.25" width="18" height="12" as="geometry" />
        </mxCell>
        <mxCell id="NrOy4aeaFnWakyzEMCqW-43" value="" style="endArrow=classic;html=1;fontSize=11;" parent="1" edge="1">
          <mxGeometry width="50" height="50" relative="1" as="geometry">
            <mxPoint x="223" y="2145.2500000000005" as="sourcePoint" />
            <mxPoint x="331" y="2145.2500000000005" as="targetPoint" />
          </mxGeometry>
        </mxCell>
        <mxCell id="NrOy4aeaFnWakyzEMCqW-44" value="" style="endArrow=classic;html=1;fontSize=11;" parent="1" edge="1">
          <mxGeometry width="50" height="50" relative="1" as="geometry">
            <mxPoint x="223" y="2145.2500000000005" as="sourcePoint" />
            <mxPoint x="223.25" y="2067.25" as="targetPoint" />
          </mxGeometry>
        </mxCell>
      </root>
    </mxGraphModel>
  </diagram>
</mxfile>
